<svg xmlns="http://www.w3.org/2000/svg" viewBox="0 0 1200 675" role="img" aria-labelledby="title desc">
  <title id="title">八百字 AI 中文作文教练</title><desc id="desc">作文格纸、批注和钢笔组成的产品封面</desc>
  <defs><linearGradient id="bg" x1="0" y1="0" x2="1" y2="1"><stop stop-color="#eff4fb"/><stop offset="1" stop-color="#cbd9ef"/></linearGradient><pattern id="grid" width="34" height="34" patternUnits="userSpaceOnUse"><path d="M34 0H0v34" fill="none" stroke="#9fb1cc" stroke-width="1"/></pattern></defs>
  <rect width="1200" height="675" fill="url(#bg)"/>
  <g transform="translate(650 72) rotate(3 220 270)"><rect width="440" height="540" rx="20" fill="#fffdf8" stroke="#9aaac1" stroke-width="3"/><rect x="32" y="30" width="376" height="474" fill="url(#grid)"/><path d="M74 30v474" stroke="#d65757" stroke-width="4"/><g fill="#334a6c"><rect x="103" y="84" width="250" height="12" rx="6"/><rect x="103" y="130" width="210" height="12" rx="6"/><rect x="103" y="176" width="270" height="12" rx="6"/><rect x="103" y="222" width="230" height="12" rx="6"/><rect x="103" y="268" width="282" height="12" rx="6"/></g><path d="M344 343c28 16 46 17 66 2M341 386c19 12 41 12 61-2" fill="none" stroke="#d65757" stroke-width="5" stroke-linecap="round"/></g>
  <g fill="#17273d" font-family="Segoe UI,Microsoft YaHei,sans-serif"><text x="86" y="170" font-size="34" letter-spacing="5" opacity=".64">CHINESE ESSAY COACH</text><text x="82" y="300" font-size="106" font-weight="850">八百字 AI</text><text x="90" y="368" font-size="34">审题 · 素材 · 提纲 · 初稿 · 讲评</text><text x="90" y="448" font-size="26" opacity=".72">写作不是一键代写，而是一条可以继续修改的路径。</text></g>
  <rect x="88" y="500" width="330" height="62" rx="16" fill="#3457e8"/><text x="253" y="541" fill="#fff" font-size="25" font-family="Segoe UI,Microsoft YaHei,sans-serif" text-anchor="middle" font-weight="700">把真实素材写成自己的文章</text>
</svg>
